<svg width="106" height="23" viewBox="0 0 106 23" fill="none" xmlns="http://www.w3.org/2000/svg">
<path d="M9.91797 17.9961C10.6081 17.9961 11.2201 17.8659 11.7539 17.6055C12.2878 17.332 12.7044 16.9544 13.0039 16.4727C13.3164 15.9779 13.4792 15.3984 13.4922 14.7344H18.7852C18.7721 16.2188 18.375 17.5404 17.5938 18.6992C16.8125 19.8451 15.7643 20.75 14.4492 21.4141C13.1341 22.0651 11.6628 22.3906 10.0352 22.3906C8.39453 22.3906 6.96224 22.1172 5.73828 21.5703C4.52734 21.0234 3.51823 20.2682 2.71094 19.3047C1.90365 18.3281 1.29818 17.1953 0.894531 15.9062C0.490885 14.6042 0.289062 13.2109 0.289062 11.7266V11.1602C0.289062 9.66276 0.490885 8.26953 0.894531 6.98047C1.29818 5.67839 1.90365 4.54557 2.71094 3.58203C3.51823 2.60547 4.52734 1.84375 5.73828 1.29688C6.94922 0.75 8.36849 0.476562 9.99609 0.476562C11.7279 0.476562 13.2448 0.808594 14.5469 1.47266C15.862 2.13672 16.8906 3.08724 17.6328 4.32422C18.388 5.54818 18.7721 7 18.7852 8.67969H13.4922C13.4792 7.97656 13.3294 7.33854 13.043 6.76562C12.7695 6.19271 12.3659 5.73698 11.832 5.39844C11.3112 5.04688 10.6667 4.87109 9.89844 4.87109C9.07812 4.87109 8.40755 5.04688 7.88672 5.39844C7.36589 5.73698 6.96224 6.20573 6.67578 6.80469C6.38932 7.39062 6.1875 8.0612 6.07031 8.81641C5.96615 9.55859 5.91406 10.3398 5.91406 11.1602V11.7266C5.91406 12.5469 5.96615 13.3346 6.07031 14.0898C6.17448 14.8451 6.36979 15.5156 6.65625 16.1016C6.95573 16.6875 7.36589 17.1497 7.88672 17.4883C8.40755 17.8268 9.08464 17.9961 9.91797 17.9961ZM21.1484 11.6484V11.2383C21.1484 9.6888 21.3698 8.26302 21.8125 6.96094C22.2552 5.64583 22.8997 4.50651 23.7461 3.54297C24.5924 2.57943 25.6341 1.83073 26.8711 1.29688C28.1081 0.75 29.5273 0.476562 31.1289 0.476562C32.7305 0.476562 34.1562 0.75 35.4062 1.29688C36.6562 1.83073 37.7044 2.57943 38.5508 3.54297C39.4102 4.50651 40.0612 5.64583 40.5039 6.96094C40.9466 8.26302 41.168 9.6888 41.168 11.2383V11.6484C41.168 13.1849 40.9466 14.6107 40.5039 15.9258C40.0612 17.2279 39.4102 18.3672 38.5508 19.3438C37.7044 20.3073 36.6628 21.056 35.4258 21.5898C34.1888 22.1237 32.7695 22.3906 31.168 22.3906C29.5664 22.3906 28.1406 22.1237 26.8906 21.5898C25.6536 21.056 24.6055 20.3073 23.7461 19.3438C22.8997 18.3672 22.2552 17.2279 21.8125 15.9258C21.3698 14.6107 21.1484 13.1849 21.1484 11.6484ZM26.7734 11.2383V11.6484C26.7734 12.5339 26.8516 13.3607 27.0078 14.1289C27.1641 14.8971 27.4115 15.5742 27.75 16.1602C28.1016 16.7331 28.5573 17.1823 29.1172 17.5078C29.6771 17.8333 30.3607 17.9961 31.168 17.9961C31.9492 17.9961 32.6198 17.8333 33.1797 17.5078C33.7396 17.1823 34.1888 16.7331 34.5273 16.1602C34.8659 15.5742 35.1133 14.8971 35.2695 14.1289C35.4388 13.3607 35.5234 12.5339 35.5234 11.6484V11.2383C35.5234 10.3789 35.4388 9.57161 35.2695 8.81641C35.1133 8.04818 34.8594 7.37109 34.5078 6.78516C34.1693 6.1862 33.7201 5.71745 33.1602 5.37891C32.6003 5.04036 31.9232 4.87109 31.1289 4.87109C30.3346 4.87109 29.6576 5.04036 29.0977 5.37891C28.5508 5.71745 28.1016 6.1862 27.75 6.78516C27.4115 7.37109 27.1641 8.04818 27.0078 8.81641C26.8516 9.57161 26.7734 10.3789 26.7734 11.2383ZM56.0508 16.1602C56.0508 15.7565 55.9336 15.3919 55.6992 15.0664C55.4648 14.7409 55.0286 14.4414 54.3906 14.168C53.7656 13.8815 52.8607 13.6211 51.6758 13.3867C50.6081 13.1523 49.612 12.8594 48.6875 12.5078C47.776 12.1432 46.9818 11.707 46.3047 11.1992C45.6406 10.6914 45.1198 10.0924 44.7422 9.40234C44.3646 8.69922 44.1758 7.89844 44.1758 7C44.1758 6.11458 44.3646 5.28125 44.7422 4.5C45.1328 3.71875 45.6862 3.02865 46.4023 2.42969C47.1315 1.81771 48.0169 1.34245 49.0586 1.00391C50.1133 0.652344 51.2982 0.476562 52.6133 0.476562C54.4492 0.476562 56.0247 0.769531 57.3398 1.35547C58.668 1.94141 59.6836 2.7487 60.3867 3.77734C61.1029 4.79297 61.4609 5.95182 61.4609 7.25391H55.8359C55.8359 6.70703 55.7188 6.21875 55.4844 5.78906C55.263 5.34635 54.9115 5.0013 54.4297 4.75391C53.9609 4.49349 53.349 4.36328 52.5938 4.36328C51.9688 4.36328 51.4284 4.47396 50.9727 4.69531C50.5169 4.90365 50.1654 5.1901 49.918 5.55469C49.6836 5.90625 49.5664 6.29688 49.5664 6.72656C49.5664 7.05208 49.6315 7.34505 49.7617 7.60547C49.9049 7.85286 50.1328 8.08073 50.4453 8.28906C50.7578 8.4974 51.1615 8.69271 51.6562 8.875C52.1641 9.04427 52.7891 9.20052 53.5312 9.34375C55.0547 9.65625 56.4154 10.0664 57.6133 10.5742C58.8112 11.069 59.7617 11.7461 60.4648 12.6055C61.168 13.4518 61.5195 14.5651 61.5195 15.9453C61.5195 16.8828 61.3112 17.7422 60.8945 18.5234C60.4779 19.3047 59.8789 19.9883 59.0977 20.5742C58.3164 21.1471 57.3789 21.5964 56.2852 21.9219C55.2044 22.2344 53.987 22.3906 52.6328 22.3906C50.6667 22.3906 49 22.0391 47.6328 21.3359C46.2786 20.6328 45.25 19.7409 44.5469 18.6602C43.8568 17.5664 43.5117 16.4466 43.5117 15.3008H48.8438C48.8698 16.069 49.0651 16.6875 49.4297 17.1562C49.8073 17.625 50.2826 17.9635 50.8555 18.1719C51.4414 18.3802 52.0729 18.4844 52.75 18.4844C53.4792 18.4844 54.0846 18.3867 54.5664 18.1914C55.0482 17.9831 55.4128 17.7096 55.6602 17.3711C55.9206 17.0195 56.0508 16.6159 56.0508 16.1602ZM73.9023 17.9961C74.5924 17.9961 75.2044 17.8659 75.7383 17.6055C76.2721 17.332 76.6888 16.9544 76.9883 16.4727C77.3008 15.9779 77.4635 15.3984 77.4766 14.7344H82.7695C82.7565 16.2188 82.3594 17.5404 81.5781 18.6992C80.7969 19.8451 79.7487 20.75 78.4336 21.4141C77.1185 22.0651 75.6471 22.3906 74.0195 22.3906C72.3789 22.3906 70.9466 22.1172 69.7227 21.5703C68.5117 21.0234 67.5026 20.2682 66.6953 19.3047C65.888 18.3281 65.2826 17.1953 64.8789 15.9062C64.4753 14.6042 64.2734 13.2109 64.2734 11.7266V11.1602C64.2734 9.66276 64.4753 8.26953 64.8789 6.98047C65.2826 5.67839 65.888 4.54557 66.6953 3.58203C67.5026 2.60547 68.5117 1.84375 69.7227 1.29688C70.9336 0.75 72.3529 0.476562 73.9805 0.476562C75.7122 0.476562 77.2292 0.808594 78.5312 1.47266C79.8464 2.13672 80.875 3.08724 81.6172 4.32422C82.3724 5.54818 82.7565 7 82.7695 8.67969H77.4766C77.4635 7.97656 77.3138 7.33854 77.0273 6.76562C76.7539 6.19271 76.3503 5.73698 75.8164 5.39844C75.2956 5.04688 74.651 4.87109 73.8828 4.87109C73.0625 4.87109 72.3919 5.04688 71.8711 5.39844C71.3503 5.73698 70.9466 6.20573 70.6602 6.80469C70.3737 7.39062 70.1719 8.0612 70.0547 8.81641C69.9505 9.55859 69.8984 10.3398 69.8984 11.1602V11.7266C69.8984 12.5469 69.9505 13.3346 70.0547 14.0898C70.1589 14.8451 70.3542 15.5156 70.6406 16.1016C70.9401 16.6875 71.3503 17.1497 71.8711 17.4883C72.3919 17.8268 73.069 17.9961 73.9023 17.9961ZM85.1328 11.6484V11.2383C85.1328 9.6888 85.3542 8.26302 85.7969 6.96094C86.2396 5.64583 86.8841 4.50651 87.7305 3.54297C88.5768 2.57943 89.6185 1.83073 90.8555 1.29688C92.0924 0.75 93.5117 0.476562 95.1133 0.476562C96.7148 0.476562 98.1406 0.75 99.3906 1.29688C100.641 1.83073 101.689 2.57943 102.535 3.54297C103.395 4.50651 104.046 5.64583 104.488 6.96094C104.931 8.26302 105.152 9.6888 105.152 11.2383V11.6484C105.152 13.1849 104.931 14.6107 104.488 15.9258C104.046 17.2279 103.395 18.3672 102.535 19.3438C101.689 20.3073 100.647 21.056 99.4102 21.5898C98.1732 22.1237 96.7539 22.3906 95.1523 22.3906C93.5508 22.3906 92.125 22.1237 90.875 21.5898C89.638 21.056 88.5898 20.3073 87.7305 19.3438C86.8841 18.3672 86.2396 17.2279 85.7969 15.9258C85.3542 14.6107 85.1328 13.1849 85.1328 11.6484ZM90.7578 11.2383V11.6484C90.7578 12.5339 90.8359 13.3607 90.9922 14.1289C91.1484 14.8971 91.3958 15.5742 91.7344 16.1602C92.0859 16.7331 92.5417 17.1823 93.1016 17.5078C93.6615 17.8333 94.3451 17.9961 95.1523 17.9961C95.9336 17.9961 96.6042 17.8333 97.1641 17.5078C97.724 17.1823 98.1732 16.7331 98.5117 16.1602C98.8503 15.5742 99.0977 14.8971 99.2539 14.1289C99.4232 13.3607 99.5078 12.5339 99.5078 11.6484V11.2383C99.5078 10.3789 99.4232 9.57161 99.2539 8.81641C99.0977 8.04818 98.8438 7.37109 98.4922 6.78516C98.1536 6.1862 97.7044 5.71745 97.1445 5.37891C96.5846 5.04036 95.9076 4.87109 95.1133 4.87109C94.319 4.87109 93.6419 5.04036 93.082 5.37891C92.5352 5.71745 92.0859 6.1862 91.7344 6.78516C91.3958 7.37109 91.1484 8.04818 90.9922 8.81641C90.8359 9.57161 90.7578 10.3789 90.7578 11.2383Z" fill="white"/>
</svg>
